<mxfile host="app.diagrams.net" modified="2021-03-02T18:49:45.175Z" agent="5.0 (Macintosh)" etag="UmW3NAVIXOk7sIginTJd" version="14.4.3" type="github">
  <diagram name="Page-1" id="9f46799a-70d6-7492-0946-bef42562c5a5">
    <mxGraphModel dx="1426" dy="803" grid="1" gridSize="10" guides="1" tooltips="1" connect="1" arrows="1" fold="1" page="1" pageScale="1" pageWidth="1100" pageHeight="850" background="#ffffff" math="0" shadow="0">
      <root>
        <mxCell id="0" />
        <mxCell id="1" parent="0" />
        <mxCell id="kGKx1Hh210MYLpCaCGiT-14" value="" style="edgeStyle=entityRelationEdgeStyle;fontSize=12;html=1;endArrow=ERoneToMany;entryX=0;entryY=0.5;entryDx=0;entryDy=0;exitX=1;exitY=0.5;exitDx=0;exitDy=0;" edge="1" parent="1" source="kGKx1Hh210MYLpCaCGiT-20" target="kGKx1Hh210MYLpCaCGiT-45">
          <mxGeometry width="100" height="100" relative="1" as="geometry">
            <mxPoint x="450" y="90" as="sourcePoint" />
            <mxPoint x="540" y="-10" as="targetPoint" />
          </mxGeometry>
        </mxCell>
        <mxCell id="kGKx1Hh210MYLpCaCGiT-19" value="teachers" style="shape=table;startSize=30;container=1;collapsible=1;childLayout=tableLayout;fixedRows=1;rowLines=0;fontStyle=1;align=center;resizeLast=1;" vertex="1" parent="1">
          <mxGeometry x="460" y="580" width="180" height="190" as="geometry" />
        </mxCell>
        <mxCell id="kGKx1Hh210MYLpCaCGiT-20" value="" style="shape=partialRectangle;collapsible=0;dropTarget=0;pointerEvents=0;fillColor=none;top=0;left=0;bottom=1;right=0;points=[[0,0.5],[1,0.5]];portConstraint=eastwest;" vertex="1" parent="kGKx1Hh210MYLpCaCGiT-19">
          <mxGeometry y="30" width="180" height="30" as="geometry" />
        </mxCell>
        <mxCell id="kGKx1Hh210MYLpCaCGiT-21" value="PK" style="shape=partialRectangle;connectable=0;fillColor=none;top=0;left=0;bottom=0;right=0;fontStyle=1;overflow=hidden;" vertex="1" parent="kGKx1Hh210MYLpCaCGiT-20">
          <mxGeometry width="30" height="30" as="geometry" />
        </mxCell>
        <mxCell id="kGKx1Hh210MYLpCaCGiT-22" value="id" style="shape=partialRectangle;connectable=0;fillColor=none;top=0;left=0;bottom=0;right=0;align=left;spacingLeft=6;fontStyle=5;overflow=hidden;" vertex="1" parent="kGKx1Hh210MYLpCaCGiT-20">
          <mxGeometry x="30" width="150" height="30" as="geometry" />
        </mxCell>
        <mxCell id="kGKx1Hh210MYLpCaCGiT-23" value="" style="shape=partialRectangle;collapsible=0;dropTarget=0;pointerEvents=0;fillColor=none;top=0;left=0;bottom=0;right=0;points=[[0,0.5],[1,0.5]];portConstraint=eastwest;" vertex="1" parent="kGKx1Hh210MYLpCaCGiT-19">
          <mxGeometry y="60" width="180" height="30" as="geometry" />
        </mxCell>
        <mxCell id="kGKx1Hh210MYLpCaCGiT-24" value="" style="shape=partialRectangle;connectable=0;fillColor=none;top=0;left=0;bottom=0;right=0;editable=1;overflow=hidden;" vertex="1" parent="kGKx1Hh210MYLpCaCGiT-23">
          <mxGeometry width="30" height="30" as="geometry" />
        </mxCell>
        <mxCell id="kGKx1Hh210MYLpCaCGiT-25" value="name" style="shape=partialRectangle;connectable=0;fillColor=none;top=0;left=0;bottom=0;right=0;align=left;spacingLeft=6;overflow=hidden;" vertex="1" parent="kGKx1Hh210MYLpCaCGiT-23">
          <mxGeometry x="30" width="150" height="30" as="geometry" />
        </mxCell>
        <mxCell id="kGKx1Hh210MYLpCaCGiT-26" value="" style="shape=partialRectangle;collapsible=0;dropTarget=0;pointerEvents=0;fillColor=none;top=0;left=0;bottom=0;right=0;points=[[0,0.5],[1,0.5]];portConstraint=eastwest;" vertex="1" parent="kGKx1Hh210MYLpCaCGiT-19">
          <mxGeometry y="90" width="180" height="30" as="geometry" />
        </mxCell>
        <mxCell id="kGKx1Hh210MYLpCaCGiT-27" value="" style="shape=partialRectangle;connectable=0;fillColor=none;top=0;left=0;bottom=0;right=0;editable=1;overflow=hidden;" vertex="1" parent="kGKx1Hh210MYLpCaCGiT-26">
          <mxGeometry width="30" height="30" as="geometry" />
        </mxCell>
        <mxCell id="kGKx1Hh210MYLpCaCGiT-28" value="start_date" style="shape=partialRectangle;connectable=0;fillColor=none;top=0;left=0;bottom=0;right=0;align=left;spacingLeft=6;overflow=hidden;" vertex="1" parent="kGKx1Hh210MYLpCaCGiT-26">
          <mxGeometry x="30" width="150" height="30" as="geometry" />
        </mxCell>
        <mxCell id="kGKx1Hh210MYLpCaCGiT-29" value="" style="shape=partialRectangle;collapsible=0;dropTarget=0;pointerEvents=0;fillColor=none;top=0;left=0;bottom=0;right=0;points=[[0,0.5],[1,0.5]];portConstraint=eastwest;" vertex="1" parent="kGKx1Hh210MYLpCaCGiT-19">
          <mxGeometry y="120" width="180" height="30" as="geometry" />
        </mxCell>
        <mxCell id="kGKx1Hh210MYLpCaCGiT-30" value="" style="shape=partialRectangle;connectable=0;fillColor=none;top=0;left=0;bottom=0;right=0;editable=1;overflow=hidden;" vertex="1" parent="kGKx1Hh210MYLpCaCGiT-29">
          <mxGeometry width="30" height="30" as="geometry" />
        </mxCell>
        <mxCell id="kGKx1Hh210MYLpCaCGiT-31" value="end_date" style="shape=partialRectangle;connectable=0;fillColor=none;top=0;left=0;bottom=0;right=0;align=left;spacingLeft=6;overflow=hidden;" vertex="1" parent="kGKx1Hh210MYLpCaCGiT-29">
          <mxGeometry x="30" width="150" height="30" as="geometry" />
        </mxCell>
        <mxCell id="kGKx1Hh210MYLpCaCGiT-32" value="" style="shape=partialRectangle;collapsible=0;dropTarget=0;pointerEvents=0;fillColor=none;top=0;left=0;bottom=0;right=0;points=[[0,0.5],[1,0.5]];portConstraint=eastwest;" vertex="1" parent="kGKx1Hh210MYLpCaCGiT-19">
          <mxGeometry y="150" width="180" height="30" as="geometry" />
        </mxCell>
        <mxCell id="kGKx1Hh210MYLpCaCGiT-33" value="" style="shape=partialRectangle;connectable=0;fillColor=none;top=0;left=0;bottom=0;right=0;editable=1;overflow=hidden;" vertex="1" parent="kGKx1Hh210MYLpCaCGiT-32">
          <mxGeometry width="30" height="30" as="geometry" />
        </mxCell>
        <mxCell id="kGKx1Hh210MYLpCaCGiT-34" value="is_active" style="shape=partialRectangle;connectable=0;fillColor=none;top=0;left=0;bottom=0;right=0;align=left;spacingLeft=6;overflow=hidden;" vertex="1" parent="kGKx1Hh210MYLpCaCGiT-32">
          <mxGeometry x="30" width="150" height="30" as="geometry" />
        </mxCell>
        <mxCell id="kGKx1Hh210MYLpCaCGiT-35" value="assistance_requests" style="shape=table;startSize=30;container=1;collapsible=1;childLayout=tableLayout;fixedRows=1;rowLines=0;fontStyle=1;align=center;resizeLast=1;" vertex="1" parent="1">
          <mxGeometry x="860" y="490" width="180" height="280" as="geometry" />
        </mxCell>
        <mxCell id="kGKx1Hh210MYLpCaCGiT-36" value="" style="shape=partialRectangle;collapsible=0;dropTarget=0;pointerEvents=0;fillColor=none;top=0;left=0;bottom=1;right=0;points=[[0,0.5],[1,0.5]];portConstraint=eastwest;" vertex="1" parent="kGKx1Hh210MYLpCaCGiT-35">
          <mxGeometry y="30" width="180" height="30" as="geometry" />
        </mxCell>
        <mxCell id="kGKx1Hh210MYLpCaCGiT-37" value="PK" style="shape=partialRectangle;connectable=0;fillColor=none;top=0;left=0;bottom=0;right=0;fontStyle=1;overflow=hidden;" vertex="1" parent="kGKx1Hh210MYLpCaCGiT-36">
          <mxGeometry width="30" height="30" as="geometry" />
        </mxCell>
        <mxCell id="kGKx1Hh210MYLpCaCGiT-38" value="id" style="shape=partialRectangle;connectable=0;fillColor=none;top=0;left=0;bottom=0;right=0;align=left;spacingLeft=6;fontStyle=5;overflow=hidden;" vertex="1" parent="kGKx1Hh210MYLpCaCGiT-36">
          <mxGeometry x="30" width="150" height="30" as="geometry" />
        </mxCell>
        <mxCell id="kGKx1Hh210MYLpCaCGiT-39" value="" style="shape=partialRectangle;collapsible=0;dropTarget=0;pointerEvents=0;fillColor=none;top=0;left=0;bottom=0;right=0;points=[[0,0.5],[1,0.5]];portConstraint=eastwest;" vertex="1" parent="kGKx1Hh210MYLpCaCGiT-35">
          <mxGeometry y="60" width="180" height="30" as="geometry" />
        </mxCell>
        <mxCell id="kGKx1Hh210MYLpCaCGiT-40" value="FK" style="shape=partialRectangle;connectable=0;fillColor=none;top=0;left=0;bottom=0;right=0;editable=1;overflow=hidden;" vertex="1" parent="kGKx1Hh210MYLpCaCGiT-39">
          <mxGeometry width="30" height="30" as="geometry" />
        </mxCell>
        <mxCell id="kGKx1Hh210MYLpCaCGiT-41" value="assignment_id" style="shape=partialRectangle;connectable=0;fillColor=none;top=0;left=0;bottom=0;right=0;align=left;spacingLeft=6;overflow=hidden;" vertex="1" parent="kGKx1Hh210MYLpCaCGiT-39">
          <mxGeometry x="30" width="150" height="30" as="geometry" />
        </mxCell>
        <mxCell id="kGKx1Hh210MYLpCaCGiT-42" value="" style="shape=partialRectangle;collapsible=0;dropTarget=0;pointerEvents=0;fillColor=none;top=0;left=0;bottom=0;right=0;points=[[0,0.5],[1,0.5]];portConstraint=eastwest;" vertex="1" parent="kGKx1Hh210MYLpCaCGiT-35">
          <mxGeometry y="90" width="180" height="30" as="geometry" />
        </mxCell>
        <mxCell id="kGKx1Hh210MYLpCaCGiT-43" value="FK" style="shape=partialRectangle;connectable=0;fillColor=none;top=0;left=0;bottom=0;right=0;editable=1;overflow=hidden;" vertex="1" parent="kGKx1Hh210MYLpCaCGiT-42">
          <mxGeometry width="30" height="30" as="geometry" />
        </mxCell>
        <mxCell id="kGKx1Hh210MYLpCaCGiT-44" value="student_id" style="shape=partialRectangle;connectable=0;fillColor=none;top=0;left=0;bottom=0;right=0;align=left;spacingLeft=6;overflow=hidden;" vertex="1" parent="kGKx1Hh210MYLpCaCGiT-42">
          <mxGeometry x="30" width="150" height="30" as="geometry" />
        </mxCell>
        <mxCell id="kGKx1Hh210MYLpCaCGiT-45" value="" style="shape=partialRectangle;collapsible=0;dropTarget=0;pointerEvents=0;fillColor=none;top=0;left=0;bottom=0;right=0;points=[[0,0.5],[1,0.5]];portConstraint=eastwest;" vertex="1" parent="kGKx1Hh210MYLpCaCGiT-35">
          <mxGeometry y="120" width="180" height="30" as="geometry" />
        </mxCell>
        <mxCell id="kGKx1Hh210MYLpCaCGiT-46" value="FK" style="shape=partialRectangle;connectable=0;fillColor=none;top=0;left=0;bottom=0;right=0;editable=1;overflow=hidden;" vertex="1" parent="kGKx1Hh210MYLpCaCGiT-45">
          <mxGeometry width="30" height="30" as="geometry" />
        </mxCell>
        <mxCell id="kGKx1Hh210MYLpCaCGiT-47" value="teacher_id" style="shape=partialRectangle;connectable=0;fillColor=none;top=0;left=0;bottom=0;right=0;align=left;spacingLeft=6;overflow=hidden;" vertex="1" parent="kGKx1Hh210MYLpCaCGiT-45">
          <mxGeometry x="30" width="150" height="30" as="geometry" />
        </mxCell>
        <mxCell id="kGKx1Hh210MYLpCaCGiT-48" value="" style="shape=partialRectangle;collapsible=0;dropTarget=0;pointerEvents=0;fillColor=none;top=0;left=0;bottom=0;right=0;points=[[0,0.5],[1,0.5]];portConstraint=eastwest;" vertex="1" parent="kGKx1Hh210MYLpCaCGiT-35">
          <mxGeometry y="150" width="180" height="30" as="geometry" />
        </mxCell>
        <mxCell id="kGKx1Hh210MYLpCaCGiT-49" value="" style="shape=partialRectangle;connectable=0;fillColor=none;top=0;left=0;bottom=0;right=0;editable=1;overflow=hidden;" vertex="1" parent="kGKx1Hh210MYLpCaCGiT-48">
          <mxGeometry width="30" height="30" as="geometry" />
        </mxCell>
        <mxCell id="kGKx1Hh210MYLpCaCGiT-50" value="created_at" style="shape=partialRectangle;connectable=0;fillColor=none;top=0;left=0;bottom=0;right=0;align=left;spacingLeft=6;overflow=hidden;" vertex="1" parent="kGKx1Hh210MYLpCaCGiT-48">
          <mxGeometry x="30" width="150" height="30" as="geometry" />
        </mxCell>
        <mxCell id="kGKx1Hh210MYLpCaCGiT-51" value="" style="shape=partialRectangle;collapsible=0;dropTarget=0;pointerEvents=0;fillColor=none;top=0;left=0;bottom=0;right=0;points=[[0,0.5],[1,0.5]];portConstraint=eastwest;" vertex="1" parent="kGKx1Hh210MYLpCaCGiT-35">
          <mxGeometry y="180" width="180" height="30" as="geometry" />
        </mxCell>
        <mxCell id="kGKx1Hh210MYLpCaCGiT-52" value="" style="shape=partialRectangle;connectable=0;fillColor=none;top=0;left=0;bottom=0;right=0;editable=1;overflow=hidden;" vertex="1" parent="kGKx1Hh210MYLpCaCGiT-51">
          <mxGeometry width="30" height="30" as="geometry" />
        </mxCell>
        <mxCell id="kGKx1Hh210MYLpCaCGiT-53" value="started_at" style="shape=partialRectangle;connectable=0;fillColor=none;top=0;left=0;bottom=0;right=0;align=left;spacingLeft=6;overflow=hidden;" vertex="1" parent="kGKx1Hh210MYLpCaCGiT-51">
          <mxGeometry x="30" width="150" height="30" as="geometry" />
        </mxCell>
        <mxCell id="kGKx1Hh210MYLpCaCGiT-54" value="" style="shape=partialRectangle;collapsible=0;dropTarget=0;pointerEvents=0;fillColor=none;top=0;left=0;bottom=0;right=0;points=[[0,0.5],[1,0.5]];portConstraint=eastwest;" vertex="1" parent="kGKx1Hh210MYLpCaCGiT-35">
          <mxGeometry y="210" width="180" height="30" as="geometry" />
        </mxCell>
        <mxCell id="kGKx1Hh210MYLpCaCGiT-55" value="" style="shape=partialRectangle;connectable=0;fillColor=none;top=0;left=0;bottom=0;right=0;editable=1;overflow=hidden;" vertex="1" parent="kGKx1Hh210MYLpCaCGiT-54">
          <mxGeometry width="30" height="30" as="geometry" />
        </mxCell>
        <mxCell id="kGKx1Hh210MYLpCaCGiT-56" value="student_feedback" style="shape=partialRectangle;connectable=0;fillColor=none;top=0;left=0;bottom=0;right=0;align=left;spacingLeft=6;overflow=hidden;" vertex="1" parent="kGKx1Hh210MYLpCaCGiT-54">
          <mxGeometry x="30" width="150" height="30" as="geometry" />
        </mxCell>
        <mxCell id="kGKx1Hh210MYLpCaCGiT-57" value="" style="shape=partialRectangle;collapsible=0;dropTarget=0;pointerEvents=0;fillColor=none;top=0;left=0;bottom=0;right=0;points=[[0,0.5],[1,0.5]];portConstraint=eastwest;" vertex="1" parent="kGKx1Hh210MYLpCaCGiT-35">
          <mxGeometry y="240" width="180" height="30" as="geometry" />
        </mxCell>
        <mxCell id="kGKx1Hh210MYLpCaCGiT-58" value="" style="shape=partialRectangle;connectable=0;fillColor=none;top=0;left=0;bottom=0;right=0;editable=1;overflow=hidden;" vertex="1" parent="kGKx1Hh210MYLpCaCGiT-57">
          <mxGeometry width="30" height="30" as="geometry" />
        </mxCell>
        <mxCell id="kGKx1Hh210MYLpCaCGiT-59" value="teacher_feedback" style="shape=partialRectangle;connectable=0;fillColor=none;top=0;left=0;bottom=0;right=0;align=left;spacingLeft=6;overflow=hidden;" vertex="1" parent="kGKx1Hh210MYLpCaCGiT-57">
          <mxGeometry x="30" width="150" height="30" as="geometry" />
        </mxCell>
        <mxCell id="kGKx1Hh210MYLpCaCGiT-60" value="students" style="shape=table;startSize=30;container=1;collapsible=1;childLayout=tableLayout;fixedRows=1;rowLines=0;fontStyle=1;align=center;resizeLast=1;" vertex="1" parent="1">
          <mxGeometry x="460" y="270" width="180" height="280" as="geometry" />
        </mxCell>
        <mxCell id="kGKx1Hh210MYLpCaCGiT-61" value="" style="shape=partialRectangle;collapsible=0;dropTarget=0;pointerEvents=0;fillColor=none;top=0;left=0;bottom=1;right=0;points=[[0,0.5],[1,0.5]];portConstraint=eastwest;" vertex="1" parent="kGKx1Hh210MYLpCaCGiT-60">
          <mxGeometry y="30" width="180" height="30" as="geometry" />
        </mxCell>
        <mxCell id="kGKx1Hh210MYLpCaCGiT-62" value="PK" style="shape=partialRectangle;connectable=0;fillColor=none;top=0;left=0;bottom=0;right=0;fontStyle=1;overflow=hidden;" vertex="1" parent="kGKx1Hh210MYLpCaCGiT-61">
          <mxGeometry width="30" height="30" as="geometry" />
        </mxCell>
        <mxCell id="kGKx1Hh210MYLpCaCGiT-63" value="id" style="shape=partialRectangle;connectable=0;fillColor=none;top=0;left=0;bottom=0;right=0;align=left;spacingLeft=6;fontStyle=5;overflow=hidden;" vertex="1" parent="kGKx1Hh210MYLpCaCGiT-61">
          <mxGeometry x="30" width="150" height="30" as="geometry" />
        </mxCell>
        <mxCell id="kGKx1Hh210MYLpCaCGiT-64" value="" style="shape=partialRectangle;collapsible=0;dropTarget=0;pointerEvents=0;fillColor=none;top=0;left=0;bottom=0;right=0;points=[[0,0.5],[1,0.5]];portConstraint=eastwest;" vertex="1" parent="kGKx1Hh210MYLpCaCGiT-60">
          <mxGeometry y="60" width="180" height="30" as="geometry" />
        </mxCell>
        <mxCell id="kGKx1Hh210MYLpCaCGiT-65" value="" style="shape=partialRectangle;connectable=0;fillColor=none;top=0;left=0;bottom=0;right=0;editable=1;overflow=hidden;" vertex="1" parent="kGKx1Hh210MYLpCaCGiT-64">
          <mxGeometry width="30" height="30" as="geometry" />
        </mxCell>
        <mxCell id="kGKx1Hh210MYLpCaCGiT-66" value="name" style="shape=partialRectangle;connectable=0;fillColor=none;top=0;left=0;bottom=0;right=0;align=left;spacingLeft=6;overflow=hidden;" vertex="1" parent="kGKx1Hh210MYLpCaCGiT-64">
          <mxGeometry x="30" width="150" height="30" as="geometry" />
        </mxCell>
        <mxCell id="kGKx1Hh210MYLpCaCGiT-67" value="" style="shape=partialRectangle;collapsible=0;dropTarget=0;pointerEvents=0;fillColor=none;top=0;left=0;bottom=0;right=0;points=[[0,0.5],[1,0.5]];portConstraint=eastwest;" vertex="1" parent="kGKx1Hh210MYLpCaCGiT-60">
          <mxGeometry y="90" width="180" height="30" as="geometry" />
        </mxCell>
        <mxCell id="kGKx1Hh210MYLpCaCGiT-68" value="" style="shape=partialRectangle;connectable=0;fillColor=none;top=0;left=0;bottom=0;right=0;editable=1;overflow=hidden;" vertex="1" parent="kGKx1Hh210MYLpCaCGiT-67">
          <mxGeometry width="30" height="30" as="geometry" />
        </mxCell>
        <mxCell id="kGKx1Hh210MYLpCaCGiT-69" value="email" style="shape=partialRectangle;connectable=0;fillColor=none;top=0;left=0;bottom=0;right=0;align=left;spacingLeft=6;overflow=hidden;" vertex="1" parent="kGKx1Hh210MYLpCaCGiT-67">
          <mxGeometry x="30" width="150" height="30" as="geometry" />
        </mxCell>
        <mxCell id="kGKx1Hh210MYLpCaCGiT-70" value="" style="shape=partialRectangle;collapsible=0;dropTarget=0;pointerEvents=0;fillColor=none;top=0;left=0;bottom=0;right=0;points=[[0,0.5],[1,0.5]];portConstraint=eastwest;" vertex="1" parent="kGKx1Hh210MYLpCaCGiT-60">
          <mxGeometry y="120" width="180" height="30" as="geometry" />
        </mxCell>
        <mxCell id="kGKx1Hh210MYLpCaCGiT-71" value="" style="shape=partialRectangle;connectable=0;fillColor=none;top=0;left=0;bottom=0;right=0;editable=1;overflow=hidden;" vertex="1" parent="kGKx1Hh210MYLpCaCGiT-70">
          <mxGeometry width="30" height="30" as="geometry" />
        </mxCell>
        <mxCell id="kGKx1Hh210MYLpCaCGiT-72" value="phone" style="shape=partialRectangle;connectable=0;fillColor=none;top=0;left=0;bottom=0;right=0;align=left;spacingLeft=6;overflow=hidden;" vertex="1" parent="kGKx1Hh210MYLpCaCGiT-70">
          <mxGeometry x="30" width="150" height="30" as="geometry" />
        </mxCell>
        <mxCell id="kGKx1Hh210MYLpCaCGiT-73" value="" style="shape=partialRectangle;collapsible=0;dropTarget=0;pointerEvents=0;fillColor=none;top=0;left=0;bottom=0;right=0;points=[[0,0.5],[1,0.5]];portConstraint=eastwest;" vertex="1" parent="kGKx1Hh210MYLpCaCGiT-60">
          <mxGeometry y="150" width="180" height="30" as="geometry" />
        </mxCell>
        <mxCell id="kGKx1Hh210MYLpCaCGiT-74" value="" style="shape=partialRectangle;connectable=0;fillColor=none;top=0;left=0;bottom=0;right=0;editable=1;overflow=hidden;" vertex="1" parent="kGKx1Hh210MYLpCaCGiT-73">
          <mxGeometry width="30" height="30" as="geometry" />
        </mxCell>
        <mxCell id="kGKx1Hh210MYLpCaCGiT-75" value="github" style="shape=partialRectangle;connectable=0;fillColor=none;top=0;left=0;bottom=0;right=0;align=left;spacingLeft=6;overflow=hidden;" vertex="1" parent="kGKx1Hh210MYLpCaCGiT-73">
          <mxGeometry x="30" width="150" height="30" as="geometry" />
        </mxCell>
        <mxCell id="kGKx1Hh210MYLpCaCGiT-125" value="" style="shape=partialRectangle;collapsible=0;dropTarget=0;pointerEvents=0;fillColor=none;top=0;left=0;bottom=0;right=0;points=[[0,0.5],[1,0.5]];portConstraint=eastwest;" vertex="1" parent="kGKx1Hh210MYLpCaCGiT-60">
          <mxGeometry y="180" width="180" height="30" as="geometry" />
        </mxCell>
        <mxCell id="kGKx1Hh210MYLpCaCGiT-126" value="" style="shape=partialRectangle;connectable=0;fillColor=none;top=0;left=0;bottom=0;right=0;editable=1;overflow=hidden;" vertex="1" parent="kGKx1Hh210MYLpCaCGiT-125">
          <mxGeometry width="30" height="30" as="geometry" />
        </mxCell>
        <mxCell id="kGKx1Hh210MYLpCaCGiT-127" value="start_date" style="shape=partialRectangle;connectable=0;fillColor=none;top=0;left=0;bottom=0;right=0;align=left;spacingLeft=6;overflow=hidden;" vertex="1" parent="kGKx1Hh210MYLpCaCGiT-125">
          <mxGeometry x="30" width="150" height="30" as="geometry" />
        </mxCell>
        <mxCell id="kGKx1Hh210MYLpCaCGiT-128" value="" style="shape=partialRectangle;collapsible=0;dropTarget=0;pointerEvents=0;fillColor=none;top=0;left=0;bottom=0;right=0;points=[[0,0.5],[1,0.5]];portConstraint=eastwest;" vertex="1" parent="kGKx1Hh210MYLpCaCGiT-60">
          <mxGeometry y="210" width="180" height="30" as="geometry" />
        </mxCell>
        <mxCell id="kGKx1Hh210MYLpCaCGiT-129" value="" style="shape=partialRectangle;connectable=0;fillColor=none;top=0;left=0;bottom=0;right=0;editable=1;overflow=hidden;" vertex="1" parent="kGKx1Hh210MYLpCaCGiT-128">
          <mxGeometry width="30" height="30" as="geometry" />
        </mxCell>
        <mxCell id="kGKx1Hh210MYLpCaCGiT-130" value="end_date" style="shape=partialRectangle;connectable=0;fillColor=none;top=0;left=0;bottom=0;right=0;align=left;spacingLeft=6;overflow=hidden;" vertex="1" parent="kGKx1Hh210MYLpCaCGiT-128">
          <mxGeometry x="30" width="150" height="30" as="geometry" />
        </mxCell>
        <mxCell id="kGKx1Hh210MYLpCaCGiT-131" value="" style="shape=partialRectangle;collapsible=0;dropTarget=0;pointerEvents=0;fillColor=none;top=0;left=0;bottom=0;right=0;points=[[0,0.5],[1,0.5]];portConstraint=eastwest;" vertex="1" parent="kGKx1Hh210MYLpCaCGiT-60">
          <mxGeometry y="240" width="180" height="30" as="geometry" />
        </mxCell>
        <mxCell id="kGKx1Hh210MYLpCaCGiT-132" value="FK" style="shape=partialRectangle;connectable=0;fillColor=none;top=0;left=0;bottom=0;right=0;editable=1;overflow=hidden;" vertex="1" parent="kGKx1Hh210MYLpCaCGiT-131">
          <mxGeometry width="30" height="30" as="geometry" />
        </mxCell>
        <mxCell id="kGKx1Hh210MYLpCaCGiT-133" value="cohort_id" style="shape=partialRectangle;connectable=0;fillColor=none;top=0;left=0;bottom=0;right=0;align=left;spacingLeft=6;overflow=hidden;" vertex="1" parent="kGKx1Hh210MYLpCaCGiT-131">
          <mxGeometry x="30" width="150" height="30" as="geometry" />
        </mxCell>
        <mxCell id="kGKx1Hh210MYLpCaCGiT-76" value="cohorts" style="shape=table;startSize=30;container=1;collapsible=1;childLayout=tableLayout;fixedRows=1;rowLines=0;fontStyle=1;align=center;resizeLast=1;" vertex="1" parent="1">
          <mxGeometry x="220" y="320" width="180" height="180" as="geometry" />
        </mxCell>
        <mxCell id="kGKx1Hh210MYLpCaCGiT-77" value="" style="shape=partialRectangle;collapsible=0;dropTarget=0;pointerEvents=0;fillColor=none;top=0;left=0;bottom=1;right=0;points=[[0,0.5],[1,0.5]];portConstraint=eastwest;" vertex="1" parent="kGKx1Hh210MYLpCaCGiT-76">
          <mxGeometry y="30" width="180" height="30" as="geometry" />
        </mxCell>
        <mxCell id="kGKx1Hh210MYLpCaCGiT-78" value="PK" style="shape=partialRectangle;connectable=0;fillColor=none;top=0;left=0;bottom=0;right=0;fontStyle=1;overflow=hidden;" vertex="1" parent="kGKx1Hh210MYLpCaCGiT-77">
          <mxGeometry width="30" height="30" as="geometry" />
        </mxCell>
        <mxCell id="kGKx1Hh210MYLpCaCGiT-79" value="id" style="shape=partialRectangle;connectable=0;fillColor=none;top=0;left=0;bottom=0;right=0;align=left;spacingLeft=6;fontStyle=5;overflow=hidden;" vertex="1" parent="kGKx1Hh210MYLpCaCGiT-77">
          <mxGeometry x="30" width="150" height="30" as="geometry" />
        </mxCell>
        <mxCell id="kGKx1Hh210MYLpCaCGiT-80" value="" style="shape=partialRectangle;collapsible=0;dropTarget=0;pointerEvents=0;fillColor=none;top=0;left=0;bottom=0;right=0;points=[[0,0.5],[1,0.5]];portConstraint=eastwest;" vertex="1" parent="kGKx1Hh210MYLpCaCGiT-76">
          <mxGeometry y="60" width="180" height="30" as="geometry" />
        </mxCell>
        <mxCell id="kGKx1Hh210MYLpCaCGiT-81" value="" style="shape=partialRectangle;connectable=0;fillColor=none;top=0;left=0;bottom=0;right=0;editable=1;overflow=hidden;" vertex="1" parent="kGKx1Hh210MYLpCaCGiT-80">
          <mxGeometry width="30" height="30" as="geometry" />
        </mxCell>
        <mxCell id="kGKx1Hh210MYLpCaCGiT-82" value="name" style="shape=partialRectangle;connectable=0;fillColor=none;top=0;left=0;bottom=0;right=0;align=left;spacingLeft=6;overflow=hidden;" vertex="1" parent="kGKx1Hh210MYLpCaCGiT-80">
          <mxGeometry x="30" width="150" height="30" as="geometry" />
        </mxCell>
        <mxCell id="kGKx1Hh210MYLpCaCGiT-83" value="" style="shape=partialRectangle;collapsible=0;dropTarget=0;pointerEvents=0;fillColor=none;top=0;left=0;bottom=0;right=0;points=[[0,0.5],[1,0.5]];portConstraint=eastwest;" vertex="1" parent="kGKx1Hh210MYLpCaCGiT-76">
          <mxGeometry y="90" width="180" height="30" as="geometry" />
        </mxCell>
        <mxCell id="kGKx1Hh210MYLpCaCGiT-84" value="" style="shape=partialRectangle;connectable=0;fillColor=none;top=0;left=0;bottom=0;right=0;editable=1;overflow=hidden;" vertex="1" parent="kGKx1Hh210MYLpCaCGiT-83">
          <mxGeometry width="30" height="30" as="geometry" />
        </mxCell>
        <mxCell id="kGKx1Hh210MYLpCaCGiT-85" value="start_date" style="shape=partialRectangle;connectable=0;fillColor=none;top=0;left=0;bottom=0;right=0;align=left;spacingLeft=6;overflow=hidden;" vertex="1" parent="kGKx1Hh210MYLpCaCGiT-83">
          <mxGeometry x="30" width="150" height="30" as="geometry" />
        </mxCell>
        <mxCell id="kGKx1Hh210MYLpCaCGiT-86" value="" style="shape=partialRectangle;collapsible=0;dropTarget=0;pointerEvents=0;fillColor=none;top=0;left=0;bottom=0;right=0;points=[[0,0.5],[1,0.5]];portConstraint=eastwest;" vertex="1" parent="kGKx1Hh210MYLpCaCGiT-76">
          <mxGeometry y="120" width="180" height="30" as="geometry" />
        </mxCell>
        <mxCell id="kGKx1Hh210MYLpCaCGiT-87" value="" style="shape=partialRectangle;connectable=0;fillColor=none;top=0;left=0;bottom=0;right=0;editable=1;overflow=hidden;" vertex="1" parent="kGKx1Hh210MYLpCaCGiT-86">
          <mxGeometry width="30" height="30" as="geometry" />
        </mxCell>
        <mxCell id="kGKx1Hh210MYLpCaCGiT-88" value="end_date" style="shape=partialRectangle;connectable=0;fillColor=none;top=0;left=0;bottom=0;right=0;align=left;spacingLeft=6;overflow=hidden;" vertex="1" parent="kGKx1Hh210MYLpCaCGiT-86">
          <mxGeometry x="30" width="150" height="30" as="geometry" />
        </mxCell>
        <mxCell id="kGKx1Hh210MYLpCaCGiT-89" value="" style="shape=partialRectangle;collapsible=0;dropTarget=0;pointerEvents=0;fillColor=none;top=0;left=0;bottom=0;right=0;points=[[0,0.5],[1,0.5]];portConstraint=eastwest;" vertex="1" parent="kGKx1Hh210MYLpCaCGiT-76">
          <mxGeometry y="150" width="180" height="30" as="geometry" />
        </mxCell>
        <mxCell id="kGKx1Hh210MYLpCaCGiT-90" value="" style="shape=partialRectangle;connectable=0;fillColor=none;top=0;left=0;bottom=0;right=0;editable=1;overflow=hidden;" vertex="1" parent="kGKx1Hh210MYLpCaCGiT-89">
          <mxGeometry width="30" height="30" as="geometry" />
        </mxCell>
        <mxCell id="kGKx1Hh210MYLpCaCGiT-91" value="" style="shape=partialRectangle;connectable=0;fillColor=none;top=0;left=0;bottom=0;right=0;align=left;spacingLeft=6;overflow=hidden;" vertex="1" parent="kGKx1Hh210MYLpCaCGiT-89">
          <mxGeometry x="30" width="150" height="30" as="geometry" />
        </mxCell>
        <mxCell id="kGKx1Hh210MYLpCaCGiT-92" value="assignments" style="shape=table;startSize=30;container=1;collapsible=1;childLayout=tableLayout;fixedRows=1;rowLines=0;fontStyle=1;align=center;resizeLast=1;" vertex="1" parent="1">
          <mxGeometry x="460" y="10" width="180" height="220" as="geometry" />
        </mxCell>
        <mxCell id="kGKx1Hh210MYLpCaCGiT-93" value="" style="shape=partialRectangle;collapsible=0;dropTarget=0;pointerEvents=0;fillColor=none;top=0;left=0;bottom=1;right=0;points=[[0,0.5],[1,0.5]];portConstraint=eastwest;" vertex="1" parent="kGKx1Hh210MYLpCaCGiT-92">
          <mxGeometry y="30" width="180" height="30" as="geometry" />
        </mxCell>
        <mxCell id="kGKx1Hh210MYLpCaCGiT-94" value="PK" style="shape=partialRectangle;connectable=0;fillColor=none;top=0;left=0;bottom=0;right=0;fontStyle=1;overflow=hidden;" vertex="1" parent="kGKx1Hh210MYLpCaCGiT-93">
          <mxGeometry width="30" height="30" as="geometry" />
        </mxCell>
        <mxCell id="kGKx1Hh210MYLpCaCGiT-95" value="id" style="shape=partialRectangle;connectable=0;fillColor=none;top=0;left=0;bottom=0;right=0;align=left;spacingLeft=6;fontStyle=5;overflow=hidden;" vertex="1" parent="kGKx1Hh210MYLpCaCGiT-93">
          <mxGeometry x="30" width="150" height="30" as="geometry" />
        </mxCell>
        <mxCell id="kGKx1Hh210MYLpCaCGiT-96" value="" style="shape=partialRectangle;collapsible=0;dropTarget=0;pointerEvents=0;fillColor=none;top=0;left=0;bottom=0;right=0;points=[[0,0.5],[1,0.5]];portConstraint=eastwest;" vertex="1" parent="kGKx1Hh210MYLpCaCGiT-92">
          <mxGeometry y="60" width="180" height="30" as="geometry" />
        </mxCell>
        <mxCell id="kGKx1Hh210MYLpCaCGiT-97" value="" style="shape=partialRectangle;connectable=0;fillColor=none;top=0;left=0;bottom=0;right=0;editable=1;overflow=hidden;" vertex="1" parent="kGKx1Hh210MYLpCaCGiT-96">
          <mxGeometry width="30" height="30" as="geometry" />
        </mxCell>
        <mxCell id="kGKx1Hh210MYLpCaCGiT-98" value="name" style="shape=partialRectangle;connectable=0;fillColor=none;top=0;left=0;bottom=0;right=0;align=left;spacingLeft=6;overflow=hidden;" vertex="1" parent="kGKx1Hh210MYLpCaCGiT-96">
          <mxGeometry x="30" width="150" height="30" as="geometry" />
        </mxCell>
        <mxCell id="kGKx1Hh210MYLpCaCGiT-99" value="" style="shape=partialRectangle;collapsible=0;dropTarget=0;pointerEvents=0;fillColor=none;top=0;left=0;bottom=0;right=0;points=[[0,0.5],[1,0.5]];portConstraint=eastwest;" vertex="1" parent="kGKx1Hh210MYLpCaCGiT-92">
          <mxGeometry y="90" width="180" height="30" as="geometry" />
        </mxCell>
        <mxCell id="kGKx1Hh210MYLpCaCGiT-100" value="" style="shape=partialRectangle;connectable=0;fillColor=none;top=0;left=0;bottom=0;right=0;editable=1;overflow=hidden;" vertex="1" parent="kGKx1Hh210MYLpCaCGiT-99">
          <mxGeometry width="30" height="30" as="geometry" />
        </mxCell>
        <mxCell id="kGKx1Hh210MYLpCaCGiT-101" value="content" style="shape=partialRectangle;connectable=0;fillColor=none;top=0;left=0;bottom=0;right=0;align=left;spacingLeft=6;overflow=hidden;" vertex="1" parent="kGKx1Hh210MYLpCaCGiT-99">
          <mxGeometry x="30" width="150" height="30" as="geometry" />
        </mxCell>
        <mxCell id="kGKx1Hh210MYLpCaCGiT-102" value="" style="shape=partialRectangle;collapsible=0;dropTarget=0;pointerEvents=0;fillColor=none;top=0;left=0;bottom=0;right=0;points=[[0,0.5],[1,0.5]];portConstraint=eastwest;" vertex="1" parent="kGKx1Hh210MYLpCaCGiT-92">
          <mxGeometry y="120" width="180" height="30" as="geometry" />
        </mxCell>
        <mxCell id="kGKx1Hh210MYLpCaCGiT-103" value="" style="shape=partialRectangle;connectable=0;fillColor=none;top=0;left=0;bottom=0;right=0;editable=1;overflow=hidden;" vertex="1" parent="kGKx1Hh210MYLpCaCGiT-102">
          <mxGeometry width="30" height="30" as="geometry" />
        </mxCell>
        <mxCell id="kGKx1Hh210MYLpCaCGiT-104" value="day" style="shape=partialRectangle;connectable=0;fillColor=none;top=0;left=0;bottom=0;right=0;align=left;spacingLeft=6;overflow=hidden;" vertex="1" parent="kGKx1Hh210MYLpCaCGiT-102">
          <mxGeometry x="30" width="150" height="30" as="geometry" />
        </mxCell>
        <mxCell id="kGKx1Hh210MYLpCaCGiT-105" value="" style="shape=partialRectangle;collapsible=0;dropTarget=0;pointerEvents=0;fillColor=none;top=0;left=0;bottom=0;right=0;points=[[0,0.5],[1,0.5]];portConstraint=eastwest;" vertex="1" parent="kGKx1Hh210MYLpCaCGiT-92">
          <mxGeometry y="150" width="180" height="30" as="geometry" />
        </mxCell>
        <mxCell id="kGKx1Hh210MYLpCaCGiT-106" value="" style="shape=partialRectangle;connectable=0;fillColor=none;top=0;left=0;bottom=0;right=0;editable=1;overflow=hidden;" vertex="1" parent="kGKx1Hh210MYLpCaCGiT-105">
          <mxGeometry width="30" height="30" as="geometry" />
        </mxCell>
        <mxCell id="kGKx1Hh210MYLpCaCGiT-107" value="chapter" style="shape=partialRectangle;connectable=0;fillColor=none;top=0;left=0;bottom=0;right=0;align=left;spacingLeft=6;overflow=hidden;" vertex="1" parent="kGKx1Hh210MYLpCaCGiT-105">
          <mxGeometry x="30" width="150" height="30" as="geometry" />
        </mxCell>
        <mxCell id="kGKx1Hh210MYLpCaCGiT-134" value="" style="shape=partialRectangle;collapsible=0;dropTarget=0;pointerEvents=0;fillColor=none;top=0;left=0;bottom=0;right=0;points=[[0,0.5],[1,0.5]];portConstraint=eastwest;" vertex="1" parent="kGKx1Hh210MYLpCaCGiT-92">
          <mxGeometry y="180" width="180" height="30" as="geometry" />
        </mxCell>
        <mxCell id="kGKx1Hh210MYLpCaCGiT-135" value="" style="shape=partialRectangle;connectable=0;fillColor=none;top=0;left=0;bottom=0;right=0;editable=1;overflow=hidden;" vertex="1" parent="kGKx1Hh210MYLpCaCGiT-134">
          <mxGeometry width="30" height="30" as="geometry" />
        </mxCell>
        <mxCell id="kGKx1Hh210MYLpCaCGiT-136" value="duration" style="shape=partialRectangle;connectable=0;fillColor=none;top=0;left=0;bottom=0;right=0;align=left;spacingLeft=6;overflow=hidden;" vertex="1" parent="kGKx1Hh210MYLpCaCGiT-134">
          <mxGeometry x="30" width="150" height="30" as="geometry" />
        </mxCell>
        <mxCell id="kGKx1Hh210MYLpCaCGiT-108" value="assignment_submissions" style="shape=table;startSize=30;container=1;collapsible=1;childLayout=tableLayout;fixedRows=1;rowLines=0;fontStyle=1;align=center;resizeLast=1;" vertex="1" parent="1">
          <mxGeometry x="860" y="240" width="180" height="220" as="geometry" />
        </mxCell>
        <mxCell id="kGKx1Hh210MYLpCaCGiT-109" value="" style="shape=partialRectangle;collapsible=0;dropTarget=0;pointerEvents=0;fillColor=none;top=0;left=0;bottom=1;right=0;points=[[0,0.5],[1,0.5]];portConstraint=eastwest;" vertex="1" parent="kGKx1Hh210MYLpCaCGiT-108">
          <mxGeometry y="30" width="180" height="30" as="geometry" />
        </mxCell>
        <mxCell id="kGKx1Hh210MYLpCaCGiT-110" value="PK" style="shape=partialRectangle;connectable=0;fillColor=none;top=0;left=0;bottom=0;right=0;fontStyle=1;overflow=hidden;" vertex="1" parent="kGKx1Hh210MYLpCaCGiT-109">
          <mxGeometry width="30" height="30" as="geometry" />
        </mxCell>
        <mxCell id="kGKx1Hh210MYLpCaCGiT-111" value="id" style="shape=partialRectangle;connectable=0;fillColor=none;top=0;left=0;bottom=0;right=0;align=left;spacingLeft=6;fontStyle=5;overflow=hidden;" vertex="1" parent="kGKx1Hh210MYLpCaCGiT-109">
          <mxGeometry x="30" width="150" height="30" as="geometry" />
        </mxCell>
        <mxCell id="kGKx1Hh210MYLpCaCGiT-112" value="" style="shape=partialRectangle;collapsible=0;dropTarget=0;pointerEvents=0;fillColor=none;top=0;left=0;bottom=0;right=0;points=[[0,0.5],[1,0.5]];portConstraint=eastwest;" vertex="1" parent="kGKx1Hh210MYLpCaCGiT-108">
          <mxGeometry y="60" width="180" height="30" as="geometry" />
        </mxCell>
        <mxCell id="kGKx1Hh210MYLpCaCGiT-113" value="" style="shape=partialRectangle;connectable=0;fillColor=none;top=0;left=0;bottom=0;right=0;editable=1;overflow=hidden;" vertex="1" parent="kGKx1Hh210MYLpCaCGiT-112">
          <mxGeometry width="30" height="30" as="geometry" />
        </mxCell>
        <mxCell id="kGKx1Hh210MYLpCaCGiT-114" value="name" style="shape=partialRectangle;connectable=0;fillColor=none;top=0;left=0;bottom=0;right=0;align=left;spacingLeft=6;overflow=hidden;" vertex="1" parent="kGKx1Hh210MYLpCaCGiT-112">
          <mxGeometry x="30" width="150" height="30" as="geometry" />
        </mxCell>
        <mxCell id="kGKx1Hh210MYLpCaCGiT-115" value="" style="shape=partialRectangle;collapsible=0;dropTarget=0;pointerEvents=0;fillColor=none;top=0;left=0;bottom=0;right=0;points=[[0,0.5],[1,0.5]];portConstraint=eastwest;" vertex="1" parent="kGKx1Hh210MYLpCaCGiT-108">
          <mxGeometry y="90" width="180" height="30" as="geometry" />
        </mxCell>
        <mxCell id="kGKx1Hh210MYLpCaCGiT-116" value="FK" style="shape=partialRectangle;connectable=0;fillColor=none;top=0;left=0;bottom=0;right=0;editable=1;overflow=hidden;" vertex="1" parent="kGKx1Hh210MYLpCaCGiT-115">
          <mxGeometry width="30" height="30" as="geometry" />
        </mxCell>
        <mxCell id="kGKx1Hh210MYLpCaCGiT-117" value="assignment_id" style="shape=partialRectangle;connectable=0;fillColor=none;top=0;left=0;bottom=0;right=0;align=left;spacingLeft=6;overflow=hidden;" vertex="1" parent="kGKx1Hh210MYLpCaCGiT-115">
          <mxGeometry x="30" width="150" height="30" as="geometry" />
        </mxCell>
        <mxCell id="kGKx1Hh210MYLpCaCGiT-118" value="" style="shape=partialRectangle;collapsible=0;dropTarget=0;pointerEvents=0;fillColor=none;top=0;left=0;bottom=0;right=0;points=[[0,0.5],[1,0.5]];portConstraint=eastwest;" vertex="1" parent="kGKx1Hh210MYLpCaCGiT-108">
          <mxGeometry y="120" width="180" height="30" as="geometry" />
        </mxCell>
        <mxCell id="kGKx1Hh210MYLpCaCGiT-119" value="FK" style="shape=partialRectangle;connectable=0;fillColor=none;top=0;left=0;bottom=0;right=0;editable=1;overflow=hidden;" vertex="1" parent="kGKx1Hh210MYLpCaCGiT-118">
          <mxGeometry width="30" height="30" as="geometry" />
        </mxCell>
        <mxCell id="kGKx1Hh210MYLpCaCGiT-120" value="student_id" style="shape=partialRectangle;connectable=0;fillColor=none;top=0;left=0;bottom=0;right=0;align=left;spacingLeft=6;overflow=hidden;" vertex="1" parent="kGKx1Hh210MYLpCaCGiT-118">
          <mxGeometry x="30" width="150" height="30" as="geometry" />
        </mxCell>
        <mxCell id="kGKx1Hh210MYLpCaCGiT-121" value="" style="shape=partialRectangle;collapsible=0;dropTarget=0;pointerEvents=0;fillColor=none;top=0;left=0;bottom=0;right=0;points=[[0,0.5],[1,0.5]];portConstraint=eastwest;" vertex="1" parent="kGKx1Hh210MYLpCaCGiT-108">
          <mxGeometry y="150" width="180" height="30" as="geometry" />
        </mxCell>
        <mxCell id="kGKx1Hh210MYLpCaCGiT-122" value="" style="shape=partialRectangle;connectable=0;fillColor=none;top=0;left=0;bottom=0;right=0;editable=1;overflow=hidden;" vertex="1" parent="kGKx1Hh210MYLpCaCGiT-121">
          <mxGeometry width="30" height="30" as="geometry" />
        </mxCell>
        <mxCell id="kGKx1Hh210MYLpCaCGiT-123" value="duration" style="shape=partialRectangle;connectable=0;fillColor=none;top=0;left=0;bottom=0;right=0;align=left;spacingLeft=6;overflow=hidden;" vertex="1" parent="kGKx1Hh210MYLpCaCGiT-121">
          <mxGeometry x="30" width="150" height="30" as="geometry" />
        </mxCell>
        <mxCell id="kGKx1Hh210MYLpCaCGiT-137" value="" style="shape=partialRectangle;collapsible=0;dropTarget=0;pointerEvents=0;fillColor=none;top=0;left=0;bottom=0;right=0;points=[[0,0.5],[1,0.5]];portConstraint=eastwest;" vertex="1" parent="kGKx1Hh210MYLpCaCGiT-108">
          <mxGeometry y="180" width="180" height="30" as="geometry" />
        </mxCell>
        <mxCell id="kGKx1Hh210MYLpCaCGiT-138" value="" style="shape=partialRectangle;connectable=0;fillColor=none;top=0;left=0;bottom=0;right=0;editable=1;overflow=hidden;" vertex="1" parent="kGKx1Hh210MYLpCaCGiT-137">
          <mxGeometry width="30" height="30" as="geometry" />
        </mxCell>
        <mxCell id="kGKx1Hh210MYLpCaCGiT-139" value="submission_date" style="shape=partialRectangle;connectable=0;fillColor=none;top=0;left=0;bottom=0;right=0;align=left;spacingLeft=6;overflow=hidden;" vertex="1" parent="kGKx1Hh210MYLpCaCGiT-137">
          <mxGeometry x="30" width="150" height="30" as="geometry" />
        </mxCell>
        <mxCell id="kGKx1Hh210MYLpCaCGiT-140" value="" style="edgeStyle=entityRelationEdgeStyle;fontSize=12;html=1;endArrow=ERoneToMany;entryX=0;entryY=0.5;entryDx=0;entryDy=0;exitX=1;exitY=0.5;exitDx=0;exitDy=0;" edge="1" parent="1" source="kGKx1Hh210MYLpCaCGiT-93" target="kGKx1Hh210MYLpCaCGiT-39">
          <mxGeometry width="100" height="100" relative="1" as="geometry">
            <mxPoint x="780" y="60" as="sourcePoint" />
            <mxPoint x="1010" y="60" as="targetPoint" />
          </mxGeometry>
        </mxCell>
        <mxCell id="kGKx1Hh210MYLpCaCGiT-141" value="" style="edgeStyle=entityRelationEdgeStyle;fontSize=12;html=1;endArrow=ERoneToMany;entryX=0;entryY=0.5;entryDx=0;entryDy=0;exitX=1;exitY=0.5;exitDx=0;exitDy=0;" edge="1" parent="1" source="kGKx1Hh210MYLpCaCGiT-93" target="kGKx1Hh210MYLpCaCGiT-115">
          <mxGeometry width="100" height="100" relative="1" as="geometry">
            <mxPoint x="780" y="60" as="sourcePoint" />
            <mxPoint x="1010" y="60" as="targetPoint" />
          </mxGeometry>
        </mxCell>
        <mxCell id="kGKx1Hh210MYLpCaCGiT-142" value="" style="edgeStyle=entityRelationEdgeStyle;fontSize=12;html=1;endArrow=ERoneToMany;exitX=1;exitY=0.5;exitDx=0;exitDy=0;" edge="1" parent="1" source="kGKx1Hh210MYLpCaCGiT-61">
          <mxGeometry width="100" height="100" relative="1" as="geometry">
            <mxPoint x="450" y="180" as="sourcePoint" />
            <mxPoint x="860" y="375" as="targetPoint" />
          </mxGeometry>
        </mxCell>
        <mxCell id="kGKx1Hh210MYLpCaCGiT-143" value="" style="edgeStyle=entityRelationEdgeStyle;fontSize=12;html=1;endArrow=ERoneToMany;entryX=0;entryY=0.5;entryDx=0;entryDy=0;exitX=1;exitY=0.5;exitDx=0;exitDy=0;" edge="1" parent="1" source="kGKx1Hh210MYLpCaCGiT-77" target="kGKx1Hh210MYLpCaCGiT-131">
          <mxGeometry width="100" height="100" relative="1" as="geometry">
            <mxPoint x="210" y="70" as="sourcePoint" />
            <mxPoint x="440" y="70" as="targetPoint" />
          </mxGeometry>
        </mxCell>
        <mxCell id="kGKx1Hh210MYLpCaCGiT-144" value="" style="edgeStyle=entityRelationEdgeStyle;fontSize=12;html=1;endArrow=ERoneToMany;entryX=0;entryY=0.5;entryDx=0;entryDy=0;exitX=1;exitY=0.5;exitDx=0;exitDy=0;" edge="1" parent="1" source="kGKx1Hh210MYLpCaCGiT-61">
          <mxGeometry width="100" height="100" relative="1" as="geometry">
            <mxPoint x="450" y="180" as="sourcePoint" />
            <mxPoint x="860" y="590" as="targetPoint" />
          </mxGeometry>
        </mxCell>
      </root>
    </mxGraphModel>
  </diagram>
</mxfile>
